# Alias OBJ Model File
# Exported from SketchUp, (c) 2000-2012 Trimble Navigation Limited
# File units = meters

mtllib bigRamp.mtl

g Mesh1 Model

usemtl FrontColor
v 28.3582 0.0725999 4.69361
vt 1116.46 2.85826
vn 0 0 1
v -11.8778 0 4.69361
vt -467.632 0
v 32.1587 0 4.69361
vt 1266.09 0
f 1/1/1 2/2/1 3/3/1

v 24.5632 0.290294 4.69361
vt 967.055 11.4289
f 2/2/1 1/1/1 4/4/1

usemtl BackColor
vn -0 -0 -1
f 3/3/2 2/2/2 1/1/2

usemtl FrontColor
vt 467.632 -184.788
vn 0 -1 -0
v 32.1587 0 -7.55639
vt -1266.09 297.496
vt -1266.09 -184.788
f 2/5/3 5/6/3 3/7/3

v -11.8778 0 -7.55639
vt 467.632 297.496
f 5/6/3 2/5/3 6/8/3

usemtl BackColor
vn -0 1 0
f 6/8/4 2/5/4 5/6/4

usemtl FrontColor
vt 184.788 0
vn -1 0 -0
v -11.8778 10.2738 -7.55639
vt -297.496 404.482
vt -297.496 0
f 2/9/5 7/10/5 6/11/5

v -11.8778 10.2738 4.69361
vt 184.788 404.482
f 7/10/5 2/9/5 8/12/5

usemtl BackColor
vn 1 -0 0
f 8/12/6 2/9/6 7/10/6

usemtl FrontColor
v -8.43755 8.65714 4.69361
vt -332.187 340.832
vt -467.632 404.482
f 2/2/1 9/13/1 8/14/1

v -4.93802 7.17301 4.69361
vt -194.41 282.402
f 2/2/1 10/15/1 9/13/1

v -1.38437 5.8236 4.69361
vt -54.5028 229.276
f 2/2/1 11/16/1 10/15/1

v 2.21823 4.61091 4.69361
vt 87.3317 181.532
f 2/2/1 12/17/1 11/16/1

v 5.86451 3.53668 4.69361
vt 230.886 139.239
f 2/2/1 13/18/1 12/17/1

v 9.54916 2.60249 4.69361
vt 375.951 102.46
f 2/2/1 14/19/1 13/18/1

v 13.2668 1.80971 4.69361
vt 522.315 71.2483
f 2/2/1 15/20/1 14/19/1

v 17.012 1.15948 4.69361
vt 669.764 45.6489
f 2/2/1 16/21/1 15/20/1

v 20.7793 0.652764 4.69361
vt 818.083 25.6994
f 2/2/1 17/22/1 16/21/1

f 2/2/1 4/4/1 17/22/1

usemtl BackColor
f 4/4/2 1/1/2 2/2/2

usemtl FrontColor
vt -184.788 -1114.47
vn 0.0381912 0.99927 -0
v 24.5632 0.290294 -7.55639
vt 297.496 -964.814
vn 0.0763266 0.997083 -0
vt -184.788 -964.814
f 1/23/7 18/24/8 4/25/8

v 28.3582 0.0725999 -7.55639
vt 297.496 -1114.47
f 18/24/8 1/23/7 19/26/7

usemtl BackColor
vn -0.0763266 -0.997083 0
vn -0.0381912 -0.99927 0
f 4/25/9 18/24/9 1/23/10

usemtl FrontColor
v 20.7793 0.652764 -7.55639
vt 297.496 -811.904
vn 0.114351 0.99344 -0
vt -184.788 -961.559
vt 297.496 -961.559
f 20/27/11 4/28/8 18/29/8

vt -184.788 -811.904
f 4/28/8 20/27/11 17/30/11

usemtl BackColor
vn -0.114351 -0.99344 0
f 17/30/12 20/27/12 4/28/9

usemtl FrontColor
v 17.012 1.15948 -7.55639
vt 297.496 -657.701
vn 0.152208 0.988348 -0
vt -184.788 -807.356
vt 297.496 -807.356
f 21/31/13 17/32/11 20/33/11

vt -184.788 -657.701
f 17/32/11 21/31/13 16/34/13

usemtl BackColor
vn -0.152208 -0.988348 0
f 16/34/14 21/31/14 17/32/12

usemtl FrontColor
v 13.2668 1.80971 -7.55639
vt 297.496 -502.429
vn 0.189843 0.981814 -0
vt -184.788 -652.084
vt 297.496 -652.084
f 22/35/15 16/36/13 21/37/13

vt -184.788 -502.429
f 16/36/13 22/35/15 15/38/15

usemtl BackColor
vn -0.189843 -0.981814 0
f 15/38/16 22/35/16 16/36/14

usemtl FrontColor
v 9.54916 2.60249 -7.55639
vt 297.496 -346.315
vn 0.227201 0.973848 -0
vt -184.788 -495.969
vt 297.496 -495.969
f 23/39/17 15/40/15 22/41/15

vt -184.788 -346.315
f 15/40/15 23/39/17 14/42/17

usemtl BackColor
vn -0.227201 -0.973848 0
f 14/42/18 23/39/18 15/40/16

usemtl FrontColor
v 5.86451 3.53668 -7.55639
vt 297.496 -189.586
vn 0.264228 0.96446 -0
vt -184.788 -339.24
vt 297.496 -339.24
f 24/43/19 14/44/17 23/45/17

vt -184.788 -189.586
f 14/44/17 24/43/19 13/46/19

usemtl BackColor
vn -0.264228 -0.96446 0
f 13/46/20 24/43/20 14/44/18

usemtl FrontColor
v 2.21823 4.61091 -7.55639
vt 297.496 -32.471
vn 0.300869 0.953666 -0
vt -184.788 -182.126
vt 297.496 -182.126
f 25/47/21 13/48/19 24/49/19

vt -184.788 -32.471
f 13/48/19 25/47/21 12/50/21

usemtl BackColor
vn -0.300869 -0.953666 0
f 12/50/22 25/47/22 13/48/20

usemtl FrontColor
v -1.38437 5.8236 -7.55639
vt 297.496 124.8
vn 0.337071 0.941479 -0
vt -184.788 -24.8545
vt 297.496 -24.8545
f 26/51/23 12/52/21 25/53/21

vt -184.788 124.8
f 12/52/21 26/51/23 11/54/23

usemtl BackColor
vn -0.337071 -0.941479 0
f 11/54/24 26/51/24 12/52/22

usemtl FrontColor
v -4.93802 7.17301 -7.55639
vt 297.496 281.998
vn 0.372781 0.927919 -0
vt -184.788 132.344
vt 297.496 132.344
f 27/55/25 11/56/23 26/57/23

vt -184.788 281.998
f 11/56/23 27/55/25 10/58/25

usemtl BackColor
vn -0.372781 -0.927919 0
f 10/58/26 27/55/26 11/56/24

usemtl FrontColor
v -8.43755 8.65714 -7.55639
vt 297.496 438.895
vn 0.407948 0.913005 -0
vt -184.788 289.24
vt 297.496 289.24
f 28/59/27 10/60/25 27/61/25

vt -184.788 438.895
f 10/60/25 28/59/27 9/62/27

usemtl BackColor
vn -0.407948 -0.913005 0
f 9/62/28 28/59/28 10/60/26

usemtl FrontColor
vt 297.496 595.259
vn 0.425311 0.905047 -0
vt -184.788 445.605
vt 297.496 445.605
f 7/63/29 9/64/27 28/65/27

vt -184.788 595.259
f 9/64/27 7/63/29 8/66/29

usemtl BackColor
vn -0.425311 -0.905047 0
f 8/66/30 7/63/30 9/64/28

f 28/65/28 9/64/28 7/63/30

usemtl FrontColor
vt 332.187 340.832
vn 0 0 -1
vt 467.632 0
vt 467.632 404.482
f 28/67/31 6/68/31 7/69/31

vt 194.41 282.402
f 27/70/31 6/68/31 28/67/31

vt 54.5028 229.276
f 26/71/31 6/68/31 27/70/31

vt -87.3317 181.532
f 25/72/31 6/68/31 26/71/31

vt -230.886 139.239
f 24/73/31 6/68/31 25/72/31

vt -375.951 102.46
f 23/74/31 6/68/31 24/73/31

vt -522.315 71.2483
f 22/75/31 6/68/31 23/74/31

vt -669.764 45.6489
f 21/76/31 6/68/31 22/75/31

vt -818.083 25.6994
f 20/77/31 6/68/31 21/76/31

vt -967.055 11.4289
f 18/78/31 6/68/31 20/77/31

vt -1116.46 2.85826
f 19/79/31 6/68/31 18/78/31

vt -1266.09 0
f 6/68/31 19/79/31 5/80/31

usemtl BackColor
vn -0 -0 1
f 5/80/32 19/79/32 6/68/32

usemtl FrontColor
vt 297.496 -1116.21
vt -184.788 -1265.86
vn 0.0190991 0.999818 -0
vt 297.496 -1265.86
f 19/81/7 3/82/33 5/83/33

vt -184.788 -1116.21
f 3/82/33 19/81/7 1/84/7

usemtl BackColor
vn -0.0190991 -0.999818 0
f 1/84/10 19/81/10 3/82/34

f 19/26/10 1/23/10 18/24/9

f 18/78/32 6/68/32 19/79/32

f 20/77/32 6/68/32 18/78/32

f 21/76/32 6/68/32 20/77/32

f 22/75/32 6/68/32 21/76/32

f 23/74/32 6/68/32 22/75/32

f 24/73/32 6/68/32 23/74/32

f 25/72/32 6/68/32 24/73/32

f 26/71/32 6/68/32 25/72/32

f 27/70/32 6/68/32 26/71/32

f 28/67/32 6/68/32 27/70/32

f 7/69/32 6/68/32 28/67/32

f 6/11/6 7/10/6 2/9/6

f 27/61/26 10/60/26 28/59/28

f 26/57/24 11/56/24 27/55/26

f 25/53/22 12/52/22 26/51/24

f 24/49/20 13/48/20 25/47/22

f 23/45/18 14/44/18 24/43/20

f 22/41/16 15/40/16 23/39/18

f 21/37/14 16/36/14 22/35/16

f 20/33/12 17/32/12 21/31/14

f 18/29/9 4/28/9 20/27/12

f 5/83/34 3/82/34 19/81/10

f 3/7/4 5/6/4 2/5/4

f 8/14/2 9/13/2 2/2/2

f 9/13/2 10/15/2 2/2/2

f 10/15/2 11/16/2 2/2/2

f 11/16/2 12/17/2 2/2/2

f 12/17/2 13/18/2 2/2/2

f 13/18/2 14/19/2 2/2/2

f 14/19/2 15/20/2 2/2/2

f 15/20/2 16/21/2 2/2/2

f 16/21/2 17/22/2 2/2/2

f 17/22/2 4/4/2 2/2/2

g Mesh2 Model

l 13 14

l 12 13

l 11 12

l 10 11

l 9 10

l 8 9

l 2 8

l 2 3

l 6 2

l 6 5

l 7 6

l 7 28

l 8 7

l 28 27

l 27 26

l 26 25

l 25 24

l 24 23

l 23 22

l 22 21

l 21 20

l 20 18

l 18 19

l 19 5

l 3 5

l 1 3

l 4 1

l 17 4

l 16 17

l 15 16

l 14 15

